# xmcd
#
# Track frame offsets: 
#        150
#        18127
#        29812
#        45550
#        59347
#        72972
#        86942
#        104792
#        118625
#        141477
#        155755
#
# Disc length: 2279 seconds
#
# Revision: 2
# Processed by: cddbd v1.5.2PL0 Copyright (c) Steve Scherf et al.
# Submitted via: ExactAudioCopy v0.99pb5
#
DISCID=a508e50b
DTITLE=Emilio Navaira - A Mi Gente
DYEAR=1997
DGENRE=Latin
TTITLE0=Ella Es Asi
TTITLE1=NoTe Puedo Perdonar
TTITLE2=Con El
TTITLE3=Nadie Mas
TTITLE4=Que  Diablos Me Pasa
TTITLE5=Soy El Rey De La Pobreza
TTITLE6=Adios Adios Amor
TTITLE7=Que  Te Debo
TTITLE8=Voy A Olvidarme De Ti 
TTITLE9=Los Abaniles
TTITLE10=Pete's Pleasure
EXTD=
EXTT0=
EXTT1=
EXTT2=
EXTT3=
EXTT4=
EXTT5=
EXTT6=
EXTT7=
EXTT8=
EXTT9=
EXTT10=
PLAYORDER=
